<svg xmlns="http://www.w3.org/2000/svg" viewBox="0 0 1024 1024" width="1024" height="1024">
  <defs>
    <radialGradient id="bg" cx="38%" cy="30%" r="95%">
      <stop offset="0%" stop-color="#2456DE"/>
      <stop offset="55%" stop-color="#1D4ED8"/>
      <stop offset="100%" stop-color="#1E3A8A"/>
    </radialGradient>
    <clipPath id="squircle">
      <rect x="100" y="100" width="824" height="824" rx="185" ry="185"/>
    </clipPath>
  </defs>
  <g clip-path="url(#squircle)">
    <rect x="100" y="100" width="824" height="824" fill="url(#bg)"/>
    <g stroke="#FFFFFF" stroke-opacity="0.05" stroke-width="2">
      <line x1="152" y1="100" x2="152" y2="924"/><line x1="100" y1="152" x2="924" y2="152"/><line x1="204" y1="100" x2="204" y2="924"/><line x1="100" y1="204" x2="924" y2="204"/><line x1="256" y1="100" x2="256" y2="924"/><line x1="100" y1="256" x2="924" y2="256"/><line x1="308" y1="100" x2="308" y2="924"/><line x1="100" y1="308" x2="924" y2="308"/><line x1="360" y1="100" x2="360" y2="924"/><line x1="100" y1="360" x2="924" y2="360"/><line x1="412" y1="100" x2="412" y2="924"/><line x1="100" y1="412" x2="924" y2="412"/><line x1="464" y1="100" x2="464" y2="924"/><line x1="100" y1="464" x2="924" y2="464"/><line x1="516" y1="100" x2="516" y2="924"/><line x1="100" y1="516" x2="924" y2="516"/><line x1="568" y1="100" x2="568" y2="924"/><line x1="100" y1="568" x2="924" y2="568"/><line x1="620" y1="100" x2="620" y2="924"/><line x1="100" y1="620" x2="924" y2="620"/><line x1="672" y1="100" x2="672" y2="924"/><line x1="100" y1="672" x2="924" y2="672"/><line x1="724" y1="100" x2="724" y2="924"/><line x1="100" y1="724" x2="924" y2="724"/><line x1="776" y1="100" x2="776" y2="924"/><line x1="100" y1="776" x2="924" y2="776"/><line x1="828" y1="100" x2="828" y2="924"/><line x1="100" y1="828" x2="924" y2="828"/><line x1="880" y1="100" x2="880" y2="924"/><line x1="100" y1="880" x2="924" y2="880"/><line x1="932" y1="100" x2="932" y2="924"/><line x1="100" y1="932" x2="924" y2="932"/><line x1="984" y1="100" x2="984" y2="924"/><line x1="100" y1="984" x2="924" y2="984"/>
    </g>
    <g fill="none" stroke="#FFFFFF" stroke-width="16" stroke-linecap="round" stroke-linejoin="round">
      <g stroke-opacity="0.25">
        <path d="M 271.2 701.0 L 607.3 507.0"/>
        <path d="M 752.8 591.0 L 607.3 507.0"/>
        <path d="M 607.3 507.0 L 607.3 239.0"/>
      </g>
      <path d="M 416.7 785.0 L 416.7 718.0 L 500.7 669.5 L 500.7 602.5 L 584.7 554.0 L 584.7 487.0 L 668.8 438.5 L 668.8 371.5 L 752.8 323.0 L 752.8 591.0 Z"/>
      <path d="M 271.2 701.0 L 271.2 634.0 L 355.2 585.5 L 355.2 518.5 L 439.3 470.0 L 439.3 403.0 L 523.3 354.5 L 523.3 287.5 L 607.3 239.0"/>
      <path d="M 416.7 785.0 L 271.2 701.0"/>
      <path d="M 416.7 718.0 L 271.2 634.0"/>
      <path d="M 500.7 669.5 L 355.2 585.5"/>
      <path d="M 500.7 602.5 L 355.2 518.5"/>
      <path d="M 584.7 554.0 L 439.3 470.0"/>
      <path d="M 584.7 487.0 L 439.3 403.0"/>
      <path d="M 668.8 438.5 L 523.3 354.5"/>
      <path d="M 668.8 371.5 L 523.3 287.5"/>
      <path d="M 752.8 323.0 L 607.3 239.0"/>
    </g>
  </g>
</svg>
